<svg width="934" height="517" viewBox="0 0 934 517" fill="none" xmlns="http://www.w3.org/2000/svg">
<path d="M0 426C0 419.925 4.92487 415 11 415H63C69.0751 415 74 419.925 74 426V517H0V426Z" fill="#FEC200"/>
<path d="M86 383C86 376.925 90.9249 372 97 372H149C155.075 372 160 376.925 160 383V517H86V383Z" fill="#FEC200"/>
<path d="M172 349C172 342.925 176.925 338 183 338H235C241.075 338 246 342.925 246 349V517H172V349Z" fill="#FEC200"/>
<path d="M258 323C258 316.925 262.925 312 269 312H321C327.075 312 332 316.925 332 323V517H258V323Z" fill="#FEC200"/>
<path d="M344 281C344 274.925 348.925 270 355 270H407C413.075 270 418 274.925 418 281V517H344V281Z" fill="#FEC200"/>
<path d="M430 246C430 239.925 434.925 235 441 235H493C499.075 235 504 239.925 504 246V517H430V246Z" fill="#FEC200"/>
<path d="M516 206C516 199.925 520.925 195 527 195H579C585.075 195 590 199.925 590 206V517H516V206Z" fill="#FEC200"/>
<path d="M602 170C602 163.925 606.925 159 613 159H665C671.075 159 676 163.925 676 170V517H602V170Z" fill="#FEC200"/>
<path d="M688 131C688 124.925 692.925 120 699 120H751C757.075 120 762 124.925 762 131V517H688V131Z" fill="#FEC200"/>
<path d="M774 84C774 77.9249 778.925 73 785 73H837C843.075 73 848 77.9249 848 84V517H774V84Z" fill="#FEC200"/>
<path d="M860 44C860 37.9249 864.925 33 871 33H923C929.075 33 934 37.9249 934 44V517H860V44Z" fill="#FEC200"/>
<path d="M15.9657 388.84V387.263H19.5377V401H17.7897V388.84H15.9657ZM22.4696 390.721C22.5583 389.556 23.0079 388.644 23.8186 387.985C24.6293 387.326 25.6806 386.997 26.9726 386.997C27.8339 386.997 28.5749 387.155 29.1956 387.472C29.8289 387.776 30.3039 388.194 30.6206 388.726C30.9499 389.258 31.1146 389.86 31.1146 390.531C31.1146 391.316 30.8866 391.994 30.4306 392.564C29.9873 393.134 29.4046 393.501 28.6826 393.666V393.761C29.5059 393.964 30.1583 394.363 30.6396 394.958C31.1209 395.553 31.3616 396.332 31.3616 397.295C31.3616 398.017 31.1969 398.669 30.8676 399.252C30.5383 399.822 30.0443 400.272 29.3856 400.601C28.7269 400.93 27.9353 401.095 27.0106 401.095C25.6679 401.095 24.5659 400.747 23.7046 400.05C22.8433 399.341 22.3619 398.34 22.2606 397.048H23.9326C24.0213 397.808 24.3316 398.429 24.8636 398.91C25.3956 399.391 26.1049 399.632 26.9916 399.632C27.8783 399.632 28.5496 399.404 29.0056 398.948C29.4743 398.479 29.7086 397.878 29.7086 397.143C29.7086 396.193 29.3919 395.509 28.7586 395.091C28.1253 394.673 27.1689 394.464 25.8896 394.464H25.4526V393.02H25.9086C27.0739 393.007 27.9543 392.817 28.5496 392.45C29.1449 392.07 29.4426 391.487 29.4426 390.702C29.4426 390.031 29.2209 389.492 28.7776 389.087C28.3469 388.682 27.7263 388.479 26.9156 388.479C26.1303 388.479 25.4969 388.682 25.0156 389.087C24.5343 389.492 24.2493 390.037 24.1606 390.721H22.4696ZM34.5321 401.114C34.2027 401.114 33.9241 401 33.6961 400.772C33.4681 400.544 33.3541 400.265 33.3541 399.936C33.3541 399.607 33.4681 399.328 33.6961 399.1C33.9241 398.872 34.2027 398.758 34.5321 398.758C34.8487 398.758 35.1147 398.872 35.3301 399.1C35.5581 399.328 35.6721 399.607 35.6721 399.936C35.6721 400.265 35.5581 400.544 35.3301 400.772C35.1147 401 34.8487 401.114 34.5321 401.114ZM45.3423 390.531C45.0637 389.125 44.196 388.422 42.7393 388.422C41.612 388.422 40.7697 388.859 40.2123 389.733C39.655 390.594 39.3827 392.019 39.3953 394.008C39.6867 393.349 40.168 392.836 40.8393 392.469C41.5233 392.089 42.2833 391.899 43.1193 391.899C44.424 391.899 45.4627 392.304 46.2353 393.115C47.0207 393.926 47.4133 395.047 47.4133 396.478C47.4133 397.339 47.2423 398.112 46.9003 398.796C46.571 399.48 46.0643 400.025 45.3803 400.43C44.709 400.835 43.892 401.038 42.9293 401.038C41.6247 401.038 40.605 400.747 39.8703 400.164C39.1357 399.581 38.6227 398.777 38.3313 397.751C38.04 396.725 37.8943 395.458 37.8943 393.951C37.8943 389.302 39.5157 386.978 42.7583 386.978C43.9997 386.978 44.975 387.314 45.6843 387.985C46.3937 388.656 46.8117 389.505 46.9383 390.531H45.3423ZM42.7583 393.362C42.2137 393.362 41.7007 393.476 41.2193 393.704C40.738 393.919 40.3453 394.255 40.0413 394.711C39.75 395.154 39.6043 395.699 39.6043 396.345C39.6043 397.308 39.883 398.093 40.4403 398.701C40.9977 399.296 41.7957 399.594 42.8343 399.594C43.721 399.594 44.424 399.322 44.9433 398.777C45.4753 398.22 45.7413 397.472 45.7413 396.535C45.7413 395.547 45.488 394.774 44.9813 394.217C44.4747 393.647 43.7337 393.362 42.7583 393.362ZM49.7079 390.721C49.7965 389.556 50.2462 388.644 51.0569 387.985C51.8675 387.326 52.9189 386.997 54.2109 386.997C55.0722 386.997 55.8132 387.155 56.4339 387.472C57.0672 387.776 57.5422 388.194 57.8589 388.726C58.1882 389.258 58.3529 389.86 58.3529 390.531C58.3529 391.316 58.1249 391.994 57.6689 392.564C57.2255 393.134 56.6429 393.501 55.9209 393.666V393.761C56.7442 393.964 57.3965 394.363 57.8779 394.958C58.3592 395.553 58.5999 396.332 58.5999 397.295C58.5999 398.017 58.4352 398.669 58.1059 399.252C57.7765 399.822 57.2825 400.272 56.6239 400.601C55.9652 400.93 55.1735 401.095 54.2489 401.095C52.9062 401.095 51.8042 400.747 50.9429 400.05C50.0815 399.341 49.6002 398.34 49.4989 397.048H51.1709C51.2595 397.808 51.5699 398.429 52.1019 398.91C52.6339 399.391 53.3432 399.632 54.2299 399.632C55.1165 399.632 55.7879 399.404 56.2439 398.948C56.7125 398.479 56.9469 397.878 56.9469 397.143C56.9469 396.193 56.6302 395.509 55.9969 395.091C55.3635 394.673 54.4072 394.464 53.1279 394.464H52.6909V393.02H53.1469C54.3122 393.007 55.1925 392.817 55.7879 392.45C56.3832 392.07 56.6809 391.487 56.6809 390.702C56.6809 390.031 56.4592 389.492 56.0159 389.087C55.5852 388.682 54.9645 388.479 54.1539 388.479C53.3685 388.479 52.7352 388.682 52.2539 389.087C51.7725 389.492 51.4875 390.037 51.3989 390.721H49.7079Z" fill="white"/>
<path d="M102.037 361.613C103.646 360.321 104.906 359.263 105.818 358.44C106.73 357.604 107.497 356.736 108.117 355.837C108.751 354.925 109.067 354.032 109.067 353.158C109.067 352.335 108.865 351.689 108.459 351.22C108.067 350.739 107.427 350.498 106.54 350.498C105.679 350.498 105.008 350.77 104.526 351.315C104.058 351.847 103.804 352.563 103.766 353.462H102.094C102.145 352.043 102.576 350.948 103.386 350.175C104.197 349.402 105.242 349.016 106.521 349.016C107.826 349.016 108.858 349.377 109.618 350.099C110.391 350.821 110.777 351.815 110.777 353.082C110.777 354.133 110.461 355.159 109.827 356.16C109.207 357.148 108.497 358.022 107.699 358.782C106.901 359.529 105.882 360.403 104.64 361.404H111.176V362.848H102.037V361.613ZM113.175 355.989C113.175 353.81 113.53 352.113 114.239 350.897C114.948 349.668 116.19 349.054 117.963 349.054C119.724 349.054 120.959 349.668 121.668 350.897C122.377 352.113 122.732 353.81 122.732 355.989C122.732 358.206 122.377 359.928 121.668 361.157C120.959 362.386 119.724 363 117.963 363C116.19 363 114.948 362.386 114.239 361.157C113.53 359.928 113.175 358.206 113.175 355.989ZM121.022 355.989C121.022 354.887 120.946 353.956 120.794 353.196C120.655 352.423 120.357 351.803 119.901 351.334C119.458 350.865 118.812 350.631 117.963 350.631C117.102 350.631 116.443 350.865 115.987 351.334C115.544 351.803 115.246 352.423 115.094 353.196C114.955 353.956 114.885 354.887 114.885 355.989C114.885 357.129 114.955 358.085 115.094 358.858C115.246 359.631 115.544 360.251 115.987 360.72C116.443 361.189 117.102 361.423 117.963 361.423C118.812 361.423 119.458 361.189 119.901 360.72C120.357 360.251 120.655 359.631 120.794 358.858C120.946 358.085 121.022 357.129 121.022 355.989ZM125.942 363.114C125.612 363.114 125.334 363 125.106 362.772C124.878 362.544 124.764 362.265 124.764 361.936C124.764 361.607 124.878 361.328 125.106 361.1C125.334 360.872 125.612 360.758 125.942 360.758C126.258 360.758 126.524 360.872 126.74 361.1C126.968 361.328 127.082 361.607 127.082 361.936C127.082 362.265 126.968 362.544 126.74 362.772C126.524 363 126.258 363.114 125.942 363.114ZM128.886 361.613C130.495 360.321 131.755 359.263 132.667 358.44C133.579 357.604 134.345 356.736 134.966 355.837C135.599 354.925 135.916 354.032 135.916 353.158C135.916 352.335 135.713 351.689 135.308 351.22C134.915 350.739 134.276 350.498 133.389 350.498C132.528 350.498 131.856 350.77 131.375 351.315C130.906 351.847 130.653 352.563 130.615 353.462H128.943C128.994 352.043 129.424 350.948 130.235 350.175C131.046 349.402 132.091 349.016 133.37 349.016C134.675 349.016 135.707 349.377 136.467 350.099C137.24 350.821 137.626 351.815 137.626 353.082C137.626 354.133 137.309 355.159 136.676 356.16C136.055 357.148 135.346 358.022 134.548 358.782C133.75 359.529 132.73 360.403 131.489 361.404H138.025V362.848H128.886V361.613ZM139.568 350.84V349.263H143.14V363H141.392V350.84H139.568Z" fill="white"/>
<path d="M186.116 326.613C187.725 325.321 188.985 324.263 189.897 323.44C190.809 322.604 191.575 321.736 192.196 320.837C192.829 319.925 193.146 319.032 193.146 318.158C193.146 317.335 192.943 316.689 192.538 316.22C192.145 315.739 191.506 315.498 190.619 315.498C189.758 315.498 189.086 315.77 188.605 316.315C188.136 316.847 187.883 317.563 187.845 318.462H186.173C186.224 317.043 186.654 315.948 187.465 315.175C188.276 314.402 189.321 314.016 190.6 314.016C191.905 314.016 192.937 314.377 193.697 315.099C194.47 315.821 194.856 316.815 194.856 318.082C194.856 319.133 194.539 320.159 193.906 321.16C193.285 322.148 192.576 323.022 191.778 323.782C190.98 324.529 189.96 325.403 188.719 326.404H195.255V327.848H186.116V326.613ZM197.045 326.613C198.653 325.321 199.914 324.263 200.826 323.44C201.738 322.604 202.504 321.736 203.125 320.837C203.758 319.925 204.075 319.032 204.075 318.158C204.075 317.335 203.872 316.689 203.467 316.22C203.074 315.739 202.434 315.498 201.548 315.498C200.686 315.498 200.015 315.77 199.534 316.315C199.065 316.847 198.812 317.563 198.774 318.462H197.102C197.152 317.043 197.583 315.948 198.394 315.175C199.204 314.402 200.249 314.016 201.529 314.016C202.833 314.016 203.866 314.377 204.626 315.099C205.398 315.821 205.785 316.815 205.785 318.082C205.785 319.133 205.468 320.159 204.835 321.16C204.214 322.148 203.505 323.022 202.707 323.782C201.909 324.529 200.889 325.403 199.648 326.404H206.184V327.848H197.045V326.613ZM209.018 328.114C208.689 328.114 208.41 328 208.182 327.772C207.954 327.544 207.84 327.265 207.84 326.936C207.84 326.607 207.954 326.328 208.182 326.1C208.41 325.872 208.689 325.758 209.018 325.758C209.335 325.758 209.601 325.872 209.816 326.1C210.044 326.328 210.158 326.607 210.158 326.936C210.158 327.265 210.044 327.544 209.816 327.772C209.601 328 209.335 328.114 209.018 328.114ZM212.172 320.989C212.172 318.81 212.526 317.113 213.236 315.897C213.945 314.668 215.186 314.054 216.96 314.054C218.72 314.054 219.955 314.668 220.665 315.897C221.374 317.113 221.729 318.81 221.729 320.989C221.729 323.206 221.374 324.928 220.665 326.157C219.955 327.386 218.72 328 216.96 328C215.186 328 213.945 327.386 213.236 326.157C212.526 324.928 212.172 323.206 212.172 320.989ZM220.019 320.989C220.019 319.887 219.943 318.956 219.791 318.196C219.651 317.423 219.354 316.803 218.898 316.334C218.454 315.865 217.808 315.631 216.96 315.631C216.098 315.631 215.44 315.865 214.984 316.334C214.54 316.803 214.243 317.423 214.091 318.196C213.951 318.956 213.882 319.887 213.882 320.989C213.882 322.129 213.951 323.085 214.091 323.858C214.243 324.631 214.54 325.251 214.984 325.72C215.44 326.189 216.098 326.423 216.96 326.423C217.808 326.423 218.454 326.189 218.898 325.72C219.354 325.251 219.651 324.631 219.791 323.858C219.943 323.085 220.019 322.129 220.019 320.989ZM223.893 326.613C225.502 325.321 226.762 324.263 227.674 323.44C228.586 322.604 229.353 321.736 229.973 320.837C230.607 319.925 230.923 319.032 230.923 318.158C230.923 317.335 230.721 316.689 230.315 316.22C229.923 315.739 229.283 315.498 228.396 315.498C227.535 315.498 226.864 315.77 226.382 316.315C225.914 316.847 225.66 317.563 225.622 318.462H223.95C224.001 317.043 224.432 315.948 225.242 315.175C226.053 314.402 227.098 314.016 228.377 314.016C229.682 314.016 230.714 314.377 231.474 315.099C232.247 315.821 232.633 316.815 232.633 318.082C232.633 319.133 232.317 320.159 231.683 321.16C231.063 322.148 230.353 323.022 229.555 323.782C228.757 324.529 227.738 325.403 226.496 326.404H233.032V327.848H223.893V326.613Z" fill="white"/>
<path d="M271.384 301.613C272.993 300.321 274.253 299.263 275.165 298.44C276.077 297.604 276.843 296.736 277.464 295.837C278.097 294.925 278.414 294.032 278.414 293.158C278.414 292.335 278.211 291.689 277.806 291.22C277.413 290.739 276.774 290.498 275.887 290.498C275.026 290.498 274.354 290.77 273.873 291.315C273.404 291.847 273.151 292.563 273.113 293.462H271.441C271.492 292.043 271.922 290.948 272.733 290.175C273.544 289.402 274.589 289.016 275.868 289.016C277.173 289.016 278.205 289.377 278.965 290.099C279.738 290.821 280.124 291.815 280.124 293.082C280.124 294.133 279.807 295.159 279.174 296.16C278.553 297.148 277.844 298.022 277.046 298.782C276.248 299.529 275.228 300.403 273.987 301.404H280.523V302.848H271.384V301.613ZM282.104 299.941V298.63L288.773 289.396H290.844V298.44H292.744V299.941H290.844V303H289.134V299.941H282.104ZM289.21 291.201L284.099 298.44H289.21V291.201ZM295.307 303.114C294.978 303.114 294.699 303 294.471 302.772C294.243 302.544 294.129 302.265 294.129 301.936C294.129 301.607 294.243 301.328 294.471 301.1C294.699 300.872 294.978 300.758 295.307 300.758C295.624 300.758 295.89 300.872 296.105 301.1C296.333 301.328 296.447 301.607 296.447 301.936C296.447 302.265 296.333 302.544 296.105 302.772C295.89 303 295.624 303.114 295.307 303.114ZM307.219 290.764H300.55V295.096C300.842 294.691 301.272 294.361 301.842 294.108C302.412 293.842 303.027 293.709 303.685 293.709C304.737 293.709 305.592 293.931 306.25 294.374C306.909 294.805 307.378 295.368 307.656 296.065C307.948 296.749 308.093 297.477 308.093 298.25C308.093 299.162 307.922 299.979 307.58 300.701C307.238 301.423 306.713 301.993 306.003 302.411C305.307 302.829 304.439 303.038 303.4 303.038C302.07 303.038 300.994 302.696 300.17 302.012C299.347 301.328 298.847 300.416 298.669 299.276H300.36C300.525 299.998 300.873 300.562 301.405 300.967C301.937 301.372 302.609 301.575 303.419 301.575C304.42 301.575 305.174 301.277 305.68 300.682C306.187 300.074 306.44 299.276 306.44 298.288C306.44 297.3 306.187 296.54 305.68 296.008C305.174 295.463 304.426 295.191 303.438 295.191C302.767 295.191 302.178 295.356 301.671 295.685C301.177 296.002 300.816 296.439 300.588 296.996H298.954V289.244H307.219V290.764ZM318.846 290.612L313.564 303H311.816L317.174 290.783H309.84V289.301H318.846V290.612Z" fill="white"/>
<path d="M357.058 260.613C358.667 259.321 359.927 258.263 360.839 257.44C361.751 256.604 362.518 255.736 363.138 254.837C363.772 253.925 364.088 253.032 364.088 252.158C364.088 251.335 363.886 250.689 363.48 250.22C363.088 249.739 362.448 249.498 361.561 249.498C360.7 249.498 360.029 249.77 359.547 250.315C359.079 250.847 358.825 251.563 358.787 252.462H357.115C357.166 251.043 357.597 249.948 358.407 249.175C359.218 248.402 360.263 248.016 361.542 248.016C362.847 248.016 363.879 248.377 364.639 249.099C365.412 249.821 365.798 250.815 365.798 252.082C365.798 253.133 365.482 254.159 364.848 255.16C364.228 256.148 363.518 257.022 362.72 257.782C361.922 258.529 360.903 259.403 359.661 260.404H366.197V261.848H357.058V260.613ZM370.419 258.314C370.546 259.036 370.837 259.593 371.293 259.986C371.762 260.379 372.389 260.575 373.174 260.575C374.225 260.575 374.998 260.163 375.492 259.34C375.999 258.517 376.239 257.13 376.214 255.179C375.948 255.749 375.505 256.199 374.884 256.528C374.263 256.845 373.573 257.003 372.813 257.003C371.964 257.003 371.204 256.832 370.533 256.49C369.874 256.135 369.355 255.622 368.975 254.951C368.595 254.28 368.405 253.469 368.405 252.519C368.405 251.164 368.798 250.074 369.583 249.251C370.368 248.415 371.483 247.997 372.927 247.997C374.7 247.997 375.942 248.573 376.651 249.726C377.373 250.879 377.734 252.595 377.734 254.875C377.734 256.471 377.588 257.788 377.297 258.827C377.018 259.866 376.537 260.657 375.853 261.202C375.182 261.747 374.257 262.019 373.079 262.019C371.787 262.019 370.78 261.671 370.058 260.974C369.336 260.277 368.924 259.391 368.823 258.314H370.419ZM373.098 255.54C373.947 255.54 374.643 255.28 375.188 254.761C375.733 254.229 376.005 253.513 376.005 252.614C376.005 251.664 375.739 250.898 375.207 250.315C374.675 249.732 373.928 249.441 372.965 249.441C372.078 249.441 371.369 249.72 370.837 250.277C370.318 250.834 370.058 251.569 370.058 252.481C370.058 253.406 370.318 254.147 370.837 254.704C371.356 255.261 372.11 255.54 373.098 255.54ZM381 262.114C380.671 262.114 380.392 262 380.164 261.772C379.936 261.544 379.822 261.265 379.822 260.936C379.822 260.607 379.936 260.328 380.164 260.1C380.392 259.872 380.671 259.758 381 259.758C381.317 259.758 381.583 259.872 381.798 260.1C382.026 260.328 382.14 260.607 382.14 260.936C382.14 261.265 382.026 261.544 381.798 261.772C381.583 262 381.317 262.114 381 262.114ZM386.661 254.856C385.952 254.577 385.407 254.172 385.027 253.64C384.647 253.108 384.457 252.462 384.457 251.702C384.457 251.018 384.628 250.404 384.97 249.859C385.312 249.302 385.819 248.865 386.49 248.548C387.174 248.219 387.997 248.054 388.96 248.054C389.923 248.054 390.74 248.219 391.411 248.548C392.095 248.865 392.608 249.302 392.95 249.859C393.305 250.404 393.482 251.018 393.482 251.702C393.482 252.437 393.286 253.083 392.893 253.64C392.5 254.185 391.962 254.59 391.278 254.856C392.063 255.097 392.684 255.521 393.14 256.129C393.609 256.724 393.843 257.446 393.843 258.295C393.843 259.118 393.64 259.84 393.235 260.461C392.83 261.069 392.253 261.544 391.506 261.886C390.771 262.215 389.923 262.38 388.96 262.38C387.997 262.38 387.149 262.215 386.414 261.886C385.692 261.544 385.128 261.069 384.723 260.461C384.318 259.84 384.115 259.118 384.115 258.295C384.115 257.446 384.343 256.718 384.799 256.11C385.255 255.502 385.876 255.084 386.661 254.856ZM391.81 251.911C391.81 251.138 391.557 250.543 391.05 250.125C390.543 249.707 389.847 249.498 388.96 249.498C388.086 249.498 387.396 249.707 386.889 250.125C386.382 250.543 386.129 251.145 386.129 251.93C386.129 252.639 386.389 253.209 386.908 253.64C387.44 254.071 388.124 254.286 388.96 254.286C389.809 254.286 390.493 254.071 391.012 253.64C391.544 253.197 391.81 252.62 391.81 251.911ZM388.96 255.616C388.023 255.616 387.256 255.838 386.661 256.281C386.066 256.712 385.768 257.364 385.768 258.238C385.768 259.049 386.053 259.701 386.623 260.195C387.206 260.689 387.985 260.936 388.96 260.936C389.935 260.936 390.708 260.689 391.278 260.195C391.848 259.701 392.133 259.049 392.133 258.238C392.133 257.389 391.842 256.743 391.259 256.3C390.676 255.844 389.91 255.616 388.96 255.616ZM395.721 258.941V257.63L402.39 248.396H404.461V257.44H406.361V258.941H404.461V262H402.751V258.941H395.721ZM402.827 250.201L397.716 257.44H402.827V250.201Z" fill="white"/>
<path d="M445.503 210.721C445.592 209.556 446.042 208.644 446.852 207.985C447.663 207.326 448.714 206.997 450.006 206.997C450.868 206.997 451.609 207.155 452.229 207.472C452.863 207.776 453.338 208.194 453.654 208.726C453.984 209.258 454.148 209.86 454.148 210.531C454.148 211.316 453.92 211.994 453.464 212.564C453.021 213.134 452.438 213.501 451.716 213.666V213.761C452.54 213.964 453.192 214.363 453.673 214.958C454.155 215.553 454.395 216.332 454.395 217.295C454.395 218.017 454.231 218.669 453.901 219.252C453.572 219.822 453.078 220.272 452.419 220.601C451.761 220.93 450.969 221.095 450.044 221.095C448.702 221.095 447.6 220.747 446.738 220.05C445.877 219.341 445.396 218.34 445.294 217.048H446.966C447.055 217.808 447.365 218.429 447.897 218.91C448.429 219.391 449.139 219.632 450.025 219.632C450.912 219.632 451.583 219.404 452.039 218.948C452.508 218.479 452.742 217.878 452.742 217.143C452.742 216.193 452.426 215.509 451.792 215.091C451.159 214.673 450.203 214.464 448.923 214.464H448.486V213.02H448.942C450.108 213.007 450.988 212.817 451.583 212.45C452.179 212.07 452.476 211.487 452.476 210.702C452.476 210.031 452.255 209.492 451.811 209.087C451.381 208.682 450.76 208.479 449.949 208.479C449.164 208.479 448.531 208.682 448.049 209.087C447.568 209.492 447.283 210.037 447.194 210.721H445.503ZM464.387 210.531C464.108 209.125 463.24 208.422 461.784 208.422C460.656 208.422 459.814 208.859 459.257 209.733C458.699 210.594 458.427 212.019 458.44 214.008C458.731 213.349 459.212 212.836 459.884 212.469C460.568 212.089 461.328 211.899 462.164 211.899C463.468 211.899 464.507 212.304 465.28 213.115C466.065 213.926 466.458 215.047 466.458 216.478C466.458 217.339 466.287 218.112 465.945 218.796C465.615 219.48 465.109 220.025 464.425 220.43C463.753 220.835 462.936 221.038 461.974 221.038C460.669 221.038 459.649 220.747 458.915 220.164C458.18 219.581 457.667 218.777 457.376 217.751C457.084 216.725 456.939 215.458 456.939 213.951C456.939 209.302 458.56 206.978 461.803 206.978C463.044 206.978 464.019 207.314 464.729 207.985C465.438 208.656 465.856 209.505 465.983 210.531H464.387ZM461.803 213.362C461.258 213.362 460.745 213.476 460.264 213.704C459.782 213.919 459.39 214.255 459.086 214.711C458.794 215.154 458.649 215.699 458.649 216.345C458.649 217.308 458.927 218.093 459.485 218.701C460.042 219.296 460.84 219.594 461.879 219.594C462.765 219.594 463.468 219.322 463.988 218.777C464.52 218.22 464.786 217.472 464.786 216.535C464.786 215.547 464.532 214.774 464.026 214.217C463.519 213.647 462.778 213.362 461.803 213.362ZM469.626 221.114C469.297 221.114 469.018 221 468.79 220.772C468.562 220.544 468.448 220.265 468.448 219.936C468.448 219.607 468.562 219.328 468.79 219.1C469.018 218.872 469.297 218.758 469.626 218.758C469.943 218.758 470.209 218.872 470.424 219.1C470.652 219.328 470.766 219.607 470.766 219.936C470.766 220.265 470.652 220.544 470.424 220.772C470.209 221 469.943 221.114 469.626 221.114ZM472.362 217.941V216.63L479.031 207.396H481.102V216.44H483.002V217.941H481.102V221H479.392V217.941H472.362ZM479.468 209.201L474.357 216.44H479.468V209.201ZM484.273 208.84V207.263H487.845V221H486.097V208.84H484.273Z" fill="white"/>
<path d="M528.859 176.941V175.63L535.528 166.396H537.599V175.44H539.499V176.941H537.599V180H535.889V176.941H528.859ZM535.965 168.201L530.854 175.44H535.965V168.201ZM540.808 176.941V175.63L547.477 166.396H549.548V175.44H551.448V176.941H549.548V180H547.838V176.941H540.808ZM547.914 168.201L542.803 175.44H547.914V168.201ZM554.011 180.114C553.682 180.114 553.403 180 553.175 179.772C552.947 179.544 552.833 179.265 552.833 178.936C552.833 178.607 552.947 178.328 553.175 178.1C553.403 177.872 553.682 177.758 554.011 177.758C554.328 177.758 554.594 177.872 554.809 178.1C555.037 178.328 555.151 178.607 555.151 178.936C555.151 179.265 555.037 179.544 554.809 179.772C554.594 180 554.328 180.114 554.011 180.114ZM556.955 178.613C558.564 177.321 559.824 176.263 560.736 175.44C561.648 174.604 562.415 173.736 563.035 172.837C563.669 171.925 563.985 171.032 563.985 170.158C563.985 169.335 563.783 168.689 563.377 168.22C562.985 167.739 562.345 167.498 561.458 167.498C560.597 167.498 559.926 167.77 559.444 168.315C558.976 168.847 558.722 169.563 558.684 170.462H557.012C557.063 169.043 557.494 167.948 558.304 167.175C559.115 166.402 560.16 166.016 561.439 166.016C562.744 166.016 563.776 166.377 564.536 167.099C565.309 167.821 565.695 168.815 565.695 170.082C565.695 171.133 565.379 172.159 564.745 173.16C564.125 174.148 563.415 175.022 562.617 175.782C561.819 176.529 560.8 177.403 559.558 178.404H566.094V179.848H556.955V178.613ZM570.601 172.856C569.892 172.577 569.347 172.172 568.967 171.64C568.587 171.108 568.397 170.462 568.397 169.702C568.397 169.018 568.568 168.404 568.91 167.859C569.252 167.302 569.759 166.865 570.43 166.548C571.114 166.219 571.937 166.054 572.9 166.054C573.863 166.054 574.68 166.219 575.351 166.548C576.035 166.865 576.548 167.302 576.89 167.859C577.245 168.404 577.422 169.018 577.422 169.702C577.422 170.437 577.226 171.083 576.833 171.64C576.44 172.185 575.902 172.59 575.218 172.856C576.003 173.097 576.624 173.521 577.08 174.129C577.549 174.724 577.783 175.446 577.783 176.295C577.783 177.118 577.58 177.84 577.175 178.461C576.77 179.069 576.193 179.544 575.446 179.886C574.711 180.215 573.863 180.38 572.9 180.38C571.937 180.38 571.089 180.215 570.354 179.886C569.632 179.544 569.068 179.069 568.663 178.461C568.258 177.84 568.055 177.118 568.055 176.295C568.055 175.446 568.283 174.718 568.739 174.11C569.195 173.502 569.816 173.084 570.601 172.856ZM575.75 169.911C575.75 169.138 575.497 168.543 574.99 168.125C574.483 167.707 573.787 167.498 572.9 167.498C572.026 167.498 571.336 167.707 570.829 168.125C570.322 168.543 570.069 169.145 570.069 169.93C570.069 170.639 570.329 171.209 570.848 171.64C571.38 172.071 572.064 172.286 572.9 172.286C573.749 172.286 574.433 172.071 574.952 171.64C575.484 171.197 575.75 170.62 575.75 169.911ZM572.9 173.616C571.963 173.616 571.196 173.838 570.601 174.281C570.006 174.712 569.708 175.364 569.708 176.238C569.708 177.049 569.993 177.701 570.563 178.195C571.146 178.689 571.925 178.936 572.9 178.936C573.875 178.936 574.648 178.689 575.218 178.195C575.788 177.701 576.073 177.049 576.073 176.238C576.073 175.389 575.782 174.743 575.199 174.3C574.616 173.844 573.85 173.616 572.9 173.616Z" fill="white"/>
<path d="M629.426 126.764H622.757V131.096C623.048 130.691 623.479 130.361 624.049 130.108C624.619 129.842 625.233 129.709 625.892 129.709C626.943 129.709 627.798 129.931 628.457 130.374C629.115 130.805 629.584 131.368 629.863 132.065C630.154 132.749 630.3 133.477 630.3 134.25C630.3 135.162 630.129 135.979 629.787 136.701C629.445 137.423 628.919 137.993 628.21 138.411C627.513 138.829 626.645 139.038 625.607 139.038C624.277 139.038 623.2 138.696 622.377 138.012C621.553 137.328 621.053 136.416 620.876 135.276H622.567C622.731 135.998 623.08 136.562 623.612 136.967C624.144 137.372 624.815 137.575 625.626 137.575C626.626 137.575 627.38 137.277 627.887 136.682C628.393 136.074 628.647 135.276 628.647 134.288C628.647 133.3 628.393 132.54 627.887 132.008C627.38 131.463 626.633 131.191 625.645 131.191C624.973 131.191 624.384 131.356 623.878 131.685C623.384 132.002 623.023 132.439 622.795 132.996H621.161V125.244H629.426V126.764ZM632.141 126.84V125.263H635.713V139H633.965V126.84H632.141ZM639.519 139.114C639.19 139.114 638.911 139 638.683 138.772C638.455 138.544 638.341 138.265 638.341 137.936C638.341 137.607 638.455 137.328 638.683 137.1C638.911 136.872 639.19 136.758 639.519 136.758C639.836 136.758 640.102 136.872 640.317 137.1C640.545 137.328 640.659 137.607 640.659 137.936C640.659 138.265 640.545 138.544 640.317 138.772C640.102 139 639.836 139.114 639.519 139.114ZM642.673 131.989C642.673 129.81 643.027 128.113 643.737 126.897C644.446 125.668 645.687 125.054 647.461 125.054C649.221 125.054 650.456 125.668 651.166 126.897C651.875 128.113 652.23 129.81 652.23 131.989C652.23 134.206 651.875 135.928 651.166 137.157C650.456 138.386 649.221 139 647.461 139C645.687 139 644.446 138.386 643.737 137.157C643.027 135.928 642.673 134.206 642.673 131.989ZM650.52 131.989C650.52 130.887 650.444 129.956 650.292 129.196C650.152 128.423 649.855 127.803 649.399 127.334C648.955 126.865 648.309 126.631 647.461 126.631C646.599 126.631 645.941 126.865 645.485 127.334C645.041 127.803 644.744 128.423 644.592 129.196C644.452 129.956 644.383 130.887 644.383 131.989C644.383 133.129 644.452 134.085 644.592 134.858C644.744 135.631 645.041 136.251 645.485 136.72C645.941 137.189 646.599 137.423 647.461 137.423C648.309 137.423 648.955 137.189 649.399 136.72C649.855 136.251 650.152 135.631 650.292 134.858C650.444 134.085 650.52 133.129 650.52 131.989ZM654.147 126.84V125.263H657.719V139H655.971V126.84H654.147Z" fill="white"/>
<path d="M710.361 85.764H703.692V90.096C703.984 89.6907 704.414 89.3613 704.984 89.108C705.554 88.842 706.169 88.709 706.827 88.709C707.879 88.709 708.734 88.9307 709.392 89.374C710.051 89.8047 710.52 90.3683 710.798 91.065C711.09 91.749 711.235 92.4773 711.235 93.25C711.235 94.162 711.064 94.979 710.722 95.701C710.38 96.423 709.855 96.993 709.145 97.411C708.449 97.829 707.581 98.038 706.542 98.038C705.212 98.038 704.136 97.696 703.312 97.012C702.489 96.328 701.989 95.416 701.811 94.276H703.502C703.667 94.998 704.015 95.5617 704.547 95.967C705.079 96.3723 705.751 96.575 706.561 96.575C707.562 96.575 708.316 96.2773 708.822 95.682C709.329 95.074 709.582 94.276 709.582 93.288C709.582 92.3 709.329 91.54 708.822 91.008C708.316 90.4633 707.568 90.191 706.58 90.191C705.909 90.191 705.32 90.3557 704.813 90.685C704.319 91.0017 703.958 91.4387 703.73 91.996H702.096V84.244H710.361V85.764ZM721.988 85.612L716.706 98H714.958L720.316 85.783H712.982V84.301H721.988V85.612ZM724.741 98.114C724.412 98.114 724.133 98 723.905 97.772C723.677 97.544 723.563 97.2653 723.563 96.936C723.563 96.6067 723.677 96.328 723.905 96.1C724.133 95.872 724.412 95.758 724.741 95.758C725.058 95.758 725.324 95.872 725.539 96.1C725.767 96.328 725.881 96.6067 725.881 96.936C725.881 97.2653 725.767 97.544 725.539 97.772C725.324 98 725.058 98.114 724.741 98.114ZM727.685 96.613C729.294 95.321 730.554 94.2633 731.466 93.44C732.378 92.604 733.145 91.7363 733.765 90.837C734.399 89.925 734.715 89.032 734.715 88.158C734.715 87.3347 734.513 86.6887 734.107 86.22C733.715 85.7387 733.075 85.498 732.188 85.498C731.327 85.498 730.656 85.7703 730.174 86.315C729.706 86.847 729.452 87.5627 729.414 88.462H727.742C727.793 87.0433 728.224 85.9477 729.034 85.175C729.845 84.4023 730.89 84.016 732.169 84.016C733.474 84.016 734.506 84.377 735.266 85.099C736.039 85.821 736.425 86.8153 736.425 88.082C736.425 89.1333 736.109 90.1593 735.475 91.16C734.855 92.148 734.145 93.022 733.347 93.782C732.549 94.5293 731.53 95.4033 730.288 96.404H736.824V97.848H727.685V96.613ZM738.823 90.989C738.823 88.8103 739.178 87.113 739.887 85.897C740.596 84.6683 741.838 84.054 743.611 84.054C745.372 84.054 746.607 84.6683 747.316 85.897C748.025 87.113 748.38 88.8103 748.38 90.989C748.38 93.2057 748.025 94.9283 747.316 96.157C746.607 97.3857 745.372 98 743.611 98C741.838 98 740.596 97.3857 739.887 96.157C739.178 94.9283 738.823 93.2057 738.823 90.989ZM746.67 90.989C746.67 89.887 746.594 88.956 746.442 88.196C746.303 87.4233 746.005 86.8027 745.549 86.334C745.106 85.8653 744.46 85.631 743.611 85.631C742.75 85.631 742.091 85.8653 741.635 86.334C741.192 86.8027 740.894 87.4233 740.742 88.196C740.603 88.956 740.533 89.887 740.533 90.989C740.533 92.129 740.603 93.0853 740.742 93.858C740.894 94.6307 741.192 95.2513 741.635 95.72C742.091 96.1887 742.75 96.423 743.611 96.423C744.46 96.423 745.106 96.1887 745.549 95.72C746.005 95.2513 746.303 94.6307 746.442 93.858C746.594 93.0853 746.67 92.129 746.67 90.989Z" fill="white"/>
<path d="M795.046 46.531C794.767 45.125 793.9 44.422 792.443 44.422C791.316 44.422 790.473 44.859 789.916 45.733C789.359 46.5943 789.086 48.0193 789.099 50.008C789.39 49.3493 789.872 48.8363 790.543 48.469C791.227 48.089 791.987 47.899 792.823 47.899C794.128 47.899 795.166 48.3043 795.939 49.115C796.724 49.9257 797.117 51.0467 797.117 52.478C797.117 53.3393 796.946 54.112 796.604 54.796C796.275 55.48 795.768 56.0247 795.084 56.43C794.413 56.8353 793.596 57.038 792.633 57.038C791.328 57.038 790.309 56.7467 789.574 56.164C788.839 55.5813 788.326 54.777 788.035 53.751C787.744 52.725 787.598 51.4583 787.598 49.951C787.598 45.3023 789.219 42.978 792.462 42.978C793.703 42.978 794.679 43.3137 795.388 43.985C796.097 44.6563 796.515 45.505 796.642 46.531H795.046ZM792.462 49.362C791.917 49.362 791.404 49.476 790.923 49.704C790.442 49.9193 790.049 50.255 789.745 50.711C789.454 51.1543 789.308 51.699 789.308 52.345C789.308 53.3077 789.587 54.093 790.144 54.701C790.701 55.2963 791.499 55.594 792.538 55.594C793.425 55.594 794.128 55.3217 794.647 54.777C795.179 54.2197 795.445 53.4723 795.445 52.535C795.445 51.547 795.192 50.7743 794.685 50.217C794.178 49.647 793.437 49.362 792.462 49.362ZM799.411 46.721C799.5 45.5557 799.95 44.6437 800.76 43.985C801.571 43.3263 802.622 42.997 803.914 42.997C804.776 42.997 805.517 43.1553 806.137 43.472C806.771 43.776 807.246 44.194 807.562 44.726C807.892 45.258 808.056 45.8597 808.056 46.531C808.056 47.3163 807.828 47.994 807.372 48.564C806.929 49.134 806.346 49.5013 805.624 49.666V49.761C806.448 49.9637 807.1 50.3627 807.581 50.958C808.063 51.5533 808.303 52.3323 808.303 53.295C808.303 54.017 808.139 54.6693 807.809 55.252C807.48 55.822 806.986 56.2717 806.327 56.601C805.669 56.9303 804.877 57.095 803.952 57.095C802.61 57.095 801.508 56.7467 800.646 56.05C799.785 55.3407 799.304 54.34 799.202 53.048H800.874C800.963 53.808 801.273 54.4287 801.805 54.91C802.337 55.3913 803.047 55.632 803.933 55.632C804.82 55.632 805.491 55.404 805.947 54.948C806.416 54.4793 806.65 53.8777 806.65 53.143C806.65 52.193 806.334 51.509 805.7 51.091C805.067 50.673 804.111 50.464 802.831 50.464H802.394V49.02H802.85C804.016 49.0073 804.896 48.8173 805.491 48.45C806.087 48.07 806.384 47.4873 806.384 46.702C806.384 46.0307 806.163 45.4923 805.719 45.087C805.289 44.6817 804.668 44.479 803.857 44.479C803.072 44.479 802.439 44.6817 801.957 45.087C801.476 45.4923 801.191 46.037 801.102 46.721H799.411ZM811.474 57.114C811.145 57.114 810.866 57 810.638 56.772C810.41 56.544 810.296 56.2653 810.296 55.936C810.296 55.6067 810.41 55.328 810.638 55.1C810.866 54.872 811.145 54.758 811.474 54.758C811.791 54.758 812.057 54.872 812.272 55.1C812.5 55.328 812.614 55.6067 812.614 55.936C812.614 56.2653 812.5 56.544 812.272 56.772C812.057 57 811.791 57.114 811.474 57.114ZM816.85 53.314C816.977 54.036 817.268 54.5933 817.724 54.986C818.193 55.3787 818.82 55.575 819.605 55.575C820.657 55.575 821.429 55.1633 821.923 54.34C822.43 53.5167 822.671 52.1297 822.645 50.179C822.379 50.749 821.936 51.1987 821.315 51.528C820.695 51.8447 820.004 52.003 819.244 52.003C818.396 52.003 817.636 51.832 816.964 51.49C816.306 51.1353 815.786 50.6223 815.406 49.951C815.026 49.2797 814.836 48.469 814.836 47.519C814.836 46.1637 815.229 45.0743 816.014 44.251C816.8 43.415 817.914 42.997 819.358 42.997C821.132 42.997 822.373 43.5733 823.082 44.726C823.804 45.8787 824.165 47.595 824.165 49.875C824.165 51.471 824.02 52.7883 823.728 53.827C823.45 54.8657 822.968 55.6573 822.284 56.202C821.613 56.7467 820.688 57.019 819.51 57.019C818.218 57.019 817.211 56.6707 816.489 55.974C815.767 55.2773 815.356 54.3907 815.254 53.314H816.85ZM819.529 50.54C820.378 50.54 821.075 50.2803 821.619 49.761C822.164 49.229 822.436 48.5133 822.436 47.614C822.436 46.664 822.17 45.8977 821.638 45.315C821.106 44.7323 820.359 44.441 819.396 44.441C818.51 44.441 817.8 44.7197 817.268 45.277C816.749 45.8343 816.489 46.569 816.489 47.481C816.489 48.4057 816.749 49.1467 817.268 49.704C817.788 50.2613 818.541 50.54 819.529 50.54ZM835.05 44.612L829.768 57H828.02L833.378 44.783H826.044V43.301H835.05V44.612Z" fill="white"/>
<path d="M887.902 3.612L882.62 16H880.872L886.23 3.783H878.896V2.301H887.902V3.612ZM889.363 3.84V2.263H892.935V16H891.187V3.84H889.363ZM896.741 16.114C896.412 16.114 896.133 16 895.905 15.772C895.677 15.544 895.563 15.2653 895.563 14.936C895.563 14.6067 895.677 14.328 895.905 14.1C896.133 13.872 896.412 13.758 896.741 13.758C897.058 13.758 897.324 13.872 897.539 14.1C897.767 14.328 897.881 14.6067 897.881 14.936C897.881 15.2653 897.767 15.544 897.539 15.772C897.324 16 897.058 16.114 896.741 16.114ZM899.685 14.613C901.294 13.321 902.554 12.2633 903.466 11.44C904.378 10.604 905.145 9.73633 905.765 8.837C906.399 7.925 906.715 7.032 906.715 6.158C906.715 5.33467 906.513 4.68867 906.107 4.22C905.715 3.73867 905.075 3.498 904.188 3.498C903.327 3.498 902.656 3.77033 902.174 4.315C901.706 4.847 901.452 5.56267 901.414 6.462H899.742C899.793 5.04333 900.224 3.94767 901.034 3.175C901.845 2.40233 902.89 2.016 904.169 2.016C905.474 2.016 906.506 2.377 907.266 3.099C908.039 3.821 908.425 4.81533 908.425 6.082C908.425 7.13333 908.109 8.15933 907.475 9.16C906.855 10.148 906.145 11.022 905.347 11.782C904.549 12.5293 903.53 13.4033 902.288 14.404H908.824V15.848H899.685V14.613ZM910.367 3.84V2.263H913.939V16H912.191V3.84H910.367Z" fill="white"/>
</svg>
